HIERARCHY
ROOT hip
{
	OFFSET 0.000000 0.000000 0.000000 
	CHANNELS 6 Xposition Yposition Zposition Xrotation Zrotation Yrotation
	JOINT abdomen
	{
		OFFSET 0.000000 3.402643 0.000000 
		CHANNELS 3 Xrotation Zrotation Yrotation
		JOINT chest
		{
			OFFSET 0.000000 8.438565 -0.680529 
			CHANNELS 3 Xrotation Zrotation Yrotation
			JOINT neck
			{
				OFFSET 0.000000 10.207942 -0.272212 
				CHANNELS 3 Xrotation Zrotation Yrotation
				JOINT head
				{
					OFFSET 0.000000 3.130431 0.000000 
					CHANNELS 3 Xrotation Zrotation Yrotation
					End Site
					{
						OFFSET 0.000000 3.130435 0.000000 
					}
				}
			}
			JOINT lCollar
			{
				OFFSET 3.470700 6.669187 -0.816635 
				CHANNELS 3 Yrotation Zrotation Xrotation
				JOINT lShldr
				{
					OFFSET 3.198488 0.000000 0.000000 
					CHANNELS 3 Zrotation Yrotation Xrotation
					JOINT lForeArm
					{
						OFFSET 10.139888 0.000000 0.000000 
						CHANNELS 3 Yrotation Zrotation Xrotation
						JOINT lHand
						{
							OFFSET 8.370511 0.000000 0.000000 
							CHANNELS 3 Zrotation Yrotation Xrotation
							End Site
							{
								OFFSET 4.083176 0.000000 0.000000 
							}
						}
					}
				}
			}
			JOINT rCollar
			{
				OFFSET -3.470700 6.669187 -0.816635 
				CHANNELS 3 Yrotation Zrotation Xrotation
				JOINT rShldr
				{
					OFFSET -3.198488 0.000000 0.000000 
					CHANNELS 3 Zrotation Yrotation Xrotation
					JOINT rForeArm
					{
						OFFSET -10.139888 0.000000 0.000000 
						CHANNELS 3 Yrotation Zrotation Xrotation
						JOINT rHand
						{
							OFFSET -8.370511 0.000000 0.000000 
							CHANNELS 3 Zrotation Yrotation Xrotation
							End Site
							{
								OFFSET -4.083176 0.000000 0.000000 
							}
						}
					}
				}
			}
		}
	}
	JOINT lThigh
	{
		OFFSET 5.308129 -1.633274 1.361059 
		CHANNELS 3 Xrotation Zrotation Yrotation
		JOINT lShin
		{
			OFFSET -2.041588 -20.007561 0.000000 
			CHANNELS 3 Xrotation Zrotation Yrotation
			JOINT lFoot
			{
				OFFSET 0.000000 -19.190928 -1.224953 
				CHANNELS 3 Xrotation Yrotation Zrotation
				End Site
				{
					OFFSET 0.000000 -2.449906 4.627600 
				}
			}
		}
	}
	JOINT rThigh
	{
		OFFSET -5.308129 -1.633274 1.361059 
		CHANNELS 3 Xrotation Zrotation Yrotation
		JOINT rShin
		{
			OFFSET 2.041588 -20.007561 0.000000 
			CHANNELS 3 Xrotation Zrotation Yrotation
			JOINT rFoot
			{
				OFFSET 0.000000 -19.190928 -1.224953 
				CHANNELS 3 Xrotation Yrotation Zrotation
				End Site
				{
					OFFSET 0.000000 -2.449906 4.627600 
				}
			}
		}
	}
}
MOTION
Frames: 13
Frame Time: 0.011111
8.364480 39.513191 61.705215 -176.193100 -179.472061 1.755918 47.687458 -10.601174 -30.945869 -11.262347 9.083620 -9.196519 -7.270612 -1.600339 -2.434393 34.190224 7.074611 -0.867351 1.452834 -1.250150 0.768655 -8.011108 -19.503696 6.467269 -78.793884 8.647873 20.194202 6.992188 16.005859 -37.487537 -6.408587 0.914528 1.823621 65.325829 -2.371128 -22.131098 85.615021 -5.638681 24.051548 -7.001954 -15.996095 50.439453 -64.365219 24.960934 -9.961740 59.730053 -4.310152 -4.532041 -0.763539 -11.389692 -1.291378 -60.306904 9.228390 -9.856853 95.032074 1.835867 6.307519 -3.260485 2.015543 0.816226 
8.326430 39.320831 60.707180 -176.494583 -179.487732 1.015497 47.427700 -11.376925 -30.847904 -10.565552 9.044890 -9.096523 -5.423244 1.050190 -3.091552 29.404976 3.274473 -3.694331 1.452834 -1.250150 0.768655 -7.533785 -18.974052 5.329936 -77.619995 8.965269 19.591646 6.992188 16.005859 -37.634026 -6.408587 0.914528 1.823621 65.230232 -1.844559 -22.316559 85.029724 -6.009778 23.675453 -7.001954 -15.996095 50.537109 -63.492973 24.491346 -10.119012 57.370399 -4.426780 -4.356589 1.739014 -10.163985 -0.721677 -62.351349 8.876919 -9.955963 97.817719 1.591045 6.362513 1.056917 1.580345 0.552529 
8.242179 39.127563 59.751419 -176.533051 -179.299057 0.427027 47.549240 -11.976877 -30.894943 -10.201345 8.989640 -9.075954 -6.144231 0.847420 -3.165511 30.605589 3.609081 -3.681446 1.452834 -1.250150 0.768655 -7.584413 -18.671556 3.631210 -76.659653 9.190636 19.106987 6.992188 16.005859 -36.530510 -6.408587 0.914528 1.823621 64.779472 -1.995773 -22.177050 84.637695 -6.242735 23.428177 -7.001954 -15.996095 51.328121 -63.566734 23.513861 -11.055157 57.567245 -4.417120 -4.388309 4.447610 -9.692260 -0.172968 -64.075790 7.832110 -10.013954 100.456207 1.377141 6.398646 4.713016 1.661151 0.286438 
8.076997 38.729259 58.801094 -176.239731 -179.003769 0.267114 48.279606 -12.222353 -31.223223 -10.012359 8.945709 -9.176385 -6.561572 0.438466 -3.363104 30.782341 4.118052 -4.059152 1.452834 -1.250150 0.768655 -7.771154 -18.565035 1.621273 -75.683395 9.395661 18.630280 6.992188 16.005859 -35.475822 -6.408587 0.914528 1.823621 63.882095 -1.995528 -21.988543 83.998009 -6.592162 23.033607 -7.001954 -15.996095 52.373051 -63.614143 22.410419 -12.714037 59.081390 -4.340701 -4.484343 6.297260 -10.141763 0.238941 -66.083771 6.113273 -10.112049 103.241554 1.121027 6.466736 6.543893 2.165388 0.083053 
7.976740 38.463821 57.959179 -175.594116 -178.439835 0.163625 49.501293 -12.598420 -31.738503 -10.016439 9.281250 -9.341005 -9.086200 -3.400228 -3.452144 35.954021 9.556517 -2.568125 1.452834 -1.250150 0.768655 -8.153329 -18.557095 0.130780 -74.612823 9.583982 18.106037 6.992188 16.005859 -34.870358 -6.408587 0.914528 1.823621 62.470173 -1.967416 -21.687754 83.226761 -6.983338 22.584970 -7.001954 -15.996095 53.515625 -62.561165 21.580843 -13.476608 62.511627 -4.145998 -4.730174 0.800993 -6.766715 -0.723866 -67.503098 4.141155 -9.833410 105.322731 0.967382 6.480917 5.805188 2.886589 0.094855 
7.849305 38.179657 57.058380 -174.634964 -177.855515 -0.456593 50.773659 -13.090487 -35.261299 -9.758574 10.075905 -6.040162 -10.030090 -5.146412 -3.593113 38.140362 11.489444 -2.287677 1.452834 -1.250150 0.768655 -8.711473 -18.628069 -0.866623 -73.571167 9.745687 17.602327 6.992188 16.005859 -34.294178 -6.408587 0.914528 1.823621 60.772747 -2.518041 -21.121426 82.580872 -7.281191 22.213730 -7.001954 -15.996095 54.873047 -62.832100 20.740883 -14.378817 66.321121 -3.932638 -4.966682 -0.219057 -6.705895 -0.858979 -68.553001 2.744304 -9.031451 106.915558 0.811399 6.488933 3.462703 2.821984 0.338386 
7.727005 37.793728 56.137047 -173.894547 -178.217606 -1.241746 51.614048 -13.161374 -34.969425 -9.297775 9.635491 -5.725788 -9.780001 -5.532225 -3.705454 37.081047 12.704733 -2.400437 1.452834 -1.250150 0.768655 -8.437374 -18.577967 -2.161426 -72.671890 9.862878 17.164333 6.992188 16.005859 -33.346912 -6.408587 0.914528 1.823621 59.989861 -2.569185 -20.655722 81.937553 -7.559743 21.859804 -7.001954 -15.996095 55.976563 -63.704361 21.092936 -15.214564 69.883240 -3.698528 -5.185749 -1.860470 -7.700062 -1.164398 -69.624809 2.461331 -8.755650 107.863571 0.713692 6.499797 1.062776 1.644997 0.536542 
7.669932 37.434982 55.253765 -173.342026 -178.993637 -1.906917 52.390816 -12.986676 -34.396812 -9.049849 9.465779 -5.449413 -9.533767 -6.202897 -3.871596 36.436134 14.355033 -2.440476 1.452834 -1.250150 0.768655 -8.302142 -18.206230 -3.077595 -72.067711 9.932528 16.884815 6.992188 16.005859 -32.409416 -6.408587 0.914528 1.823621 59.303329 -2.637669 -20.545853 81.393059 -7.779493 21.562588 -7.001954 -15.996095 56.982426 -64.569878 22.031206 -16.033989 72.599403 -3.523021 -5.343202 -3.742198 -8.293455 -1.494625 -70.680077 2.539388 -8.793483 108.098099 0.694160 6.501171 -1.233777 0.113960 0.600620 
7.652113 37.133610 54.354168 -172.691879 -179.543045 -2.500376 53.517021 -13.098879 -34.073444 -9.142179 9.560027 -5.210350 -9.496500 -6.587060 -4.177805 36.563194 15.625028 -2.713266 1.452834 -1.250150 0.768655 -8.175950 -17.981022 -3.615920 -71.343307 10.001484 16.535694 6.992188 16.005859 -31.872307 -6.408587 0.914528 1.823621 58.752659 -2.853308 -20.943575 80.814056 -7.999391 21.261499 -7.001954 -15.996095 57.509769 -64.622528 23.055792 -16.466881 74.853546 -3.376534 -5.458639 -5.428475 -8.850342 -1.805811 -71.485443 2.364093 -8.582311 107.755936 0.752324 6.503930 -3.626562 -1.092292 0.567235 
7.677783 36.937622 53.477829 -172.286942 -179.935959 -3.162234 54.418690 -13.400955 -34.146729 -9.124997 9.653326 -5.068615 -9.338995 -6.596326 -4.261597 36.221851 16.253220 -2.733933 1.452834 -1.250150 0.768655 -7.952059 -17.706518 -4.252834 -70.245346 10.089041 16.021872 6.992188 16.005859 -31.501215 -6.408587 0.914528 1.823621 58.126541 -2.760572 -21.222401 80.167252 -8.224561 20.913645 -7.001954 -15.996095 57.539059 -64.270424 24.461796 -16.330515 76.588089 -3.250282 -5.565300 -6.363124 -10.002669 -2.135270 -72.008514 2.265900 -8.177206 106.544281 0.840721 6.489778 -5.676435 -2.032449 0.441242 
7.669630 36.679131 52.562840 -172.271133 -179.787201 -3.655641 55.049446 -14.065916 -34.493824 -8.857874 9.588868 -4.908622 -9.191580 -6.111592 -4.463507 35.814926 16.509363 -3.075442 1.452834 -1.250150 0.768655 -7.256626 -17.683622 -4.650110 -69.005867 10.159157 15.436747 6.992188 16.005859 -31.257072 -6.408587 0.914528 1.823621 58.229523 -2.679636 -21.674578 79.686035 -8.381937 20.658419 -7.001954 -15.996095 58.046875 -64.082314 25.466974 -15.693287 78.321503 -3.142849 -5.644424 -7.269304 -11.283578 -2.495389 -73.077095 1.680397 -7.127025 105.068672 0.986999 6.476735 -7.184655 -2.534726 0.333294 
7.749049 36.664940 51.763508 -172.601837 -179.631332 -3.602916 55.483864 -14.296264 -35.131779 -8.857262 9.573906 -4.964481 -9.417645 -5.830807 -4.726388 36.511570 16.950186 -3.283064 1.452834 -1.250150 0.768655 -6.680370 -17.368269 -4.938811 -67.859001 10.194486 14.903278 6.992188 16.005859 -31.491444 -6.408587 0.914528 1.823621 58.201824 -2.658128 -21.618021 79.162880 -8.545829 20.390114 -7.001954 -15.996095 59.072266 -64.000153 25.917196 -15.223069 79.516197 -3.065000 -5.706363 -8.206956 -12.111814 -2.836868 -74.083191 0.869818 -6.114189 102.811340 1.171942 6.440615 -8.242496 -2.514117 0.287727 
7.820920 36.571625 50.945446 -173.232819 -179.855774 -3.173894 55.593750 -13.782504 -35.868969 -9.050735 10.029227 -5.305591 -9.933019 -6.299466 -4.678558 37.872185 17.256666 -2.948177 1.452834 -1.250150 0.768655 -7.074721 -16.901470 -5.862790 -66.711029 10.205827 14.375458 6.992188 16.005859 -32.370354 -6.408587 0.914528 1.823621 57.017948 -2.322065 -20.942732 78.380409 -8.770273 19.986071 -7.001954 -15.996095 60.048832 -64.815727 26.219007 -15.490395 80.710732 -2.977191 -5.758456 -9.074177 -12.849708 -3.168124 -75.568687 -0.009126 -5.502847 100.280357 1.386914 6.398748 -8.627629 -2.322814 0.299815 
